<svg viewBox="0 0 100 100" xmlns="http://www.w3.org/2000/svg">
<circle cx="28.00" cy="98.00" r="0.5" fill="black" />
<circle cx="30.00" cy="98.00" r="0.5" fill="black" />
<circle cx="31.00" cy="98.00" r="0.5" fill="black" />
<circle cx="33.00" cy="98.00" r="0.5" fill="black" />
<circle cx="35.00" cy="98.00" r="0.5" fill="black" />
<circle cx="23.00" cy="96.00" r="0.5" fill="black" />
<circle cx="26.00" cy="96.00" r="0.5" fill="black" />
<circle cx="28.00" cy="96.00" r="0.5" fill="black" />
<circle cx="33.00" cy="96.00" r="0.5" fill="black" />
<circle cx="35.00" cy="96.00" r="0.5" fill="black" />
<circle cx="23.00" cy="95.00" r="0.5" fill="black" />
<circle cx="26.00" cy="95.00" r="0.5" fill="black" />
<circle cx="28.00" cy="95.00" r="0.5" fill="black" />
<circle cx="33.00" cy="95.00" r="0.5" fill="black" />
<circle cx="35.00" cy="95.00" r="0.5" fill="black" />
<circle cx="21.00" cy="93.00" r="0.5" fill="black" />
<circle cx="23.00" cy="93.00" r="0.5" fill="black" />
<circle cx="26.00" cy="93.00" r="0.5" fill="black" />
<circle cx="28.00" cy="93.00" r="0.5" fill="black" />
<circle cx="30.00" cy="93.00" r="0.5" fill="black" />
<circle cx="31.00" cy="93.00" r="0.5" fill="black" />
<circle cx="33.00" cy="93.00" r="0.5" fill="black" />
<circle cx="35.00" cy="93.00" r="0.5" fill="black" />
<circle cx="11.00" cy="91.00" r="0.5" fill="black" />
<circle cx="14.00" cy="91.00" r="0.5" fill="black" />
<circle cx="16.00" cy="91.00" r="0.5" fill="black" />
<circle cx="19.00" cy="91.00" r="0.5" fill="black" />
<circle cx="21.00" cy="91.00" r="0.5" fill="black" />
<circle cx="23.00" cy="91.00" r="0.5" fill="black" />
<circle cx="26.00" cy="91.00" r="0.5" fill="black" />
<circle cx="28.00" cy="91.00" r="0.5" fill="black" />
<circle cx="33.00" cy="91.00" r="0.5" fill="black" />
<circle cx="35.00" cy="91.00" r="0.5" fill="black" />
<circle cx="14.00" cy="90.00" r="0.5" fill="black" />
<circle cx="16.00" cy="90.00" r="0.5" fill="black" />
<circle cx="21.00" cy="90.00" r="0.5" fill="black" />
<circle cx="28.00" cy="90.00" r="0.5" fill="black" />
<circle cx="33.00" cy="90.00" r="0.5" fill="black" />
<circle cx="35.00" cy="90.00" r="0.5" fill="black" />
<circle cx="14.00" cy="88.00" r="0.5" fill="black" />
<circle cx="16.00" cy="88.00" r="0.5" fill="black" />
<circle cx="18.00" cy="88.00" r="0.5" fill="black" />
<circle cx="19.00" cy="88.00" r="0.5" fill="black" />
<circle cx="21.00" cy="88.00" r="0.5" fill="black" />
<circle cx="23.00" cy="88.00" r="0.5" fill="black" />
<circle cx="26.00" cy="88.00" r="0.5" fill="black" />
<circle cx="28.00" cy="88.00" r="0.5" fill="black" />
<circle cx="30.00" cy="88.00" r="0.5" fill="black" />
<circle cx="31.00" cy="88.00" r="0.5" fill="black" />
<circle cx="33.00" cy="88.00" r="0.5" fill="black" />
<circle cx="35.00" cy="88.00" r="0.5" fill="black" />
<circle cx="14.00" cy="86.00" r="0.5" fill="black" />
<circle cx="16.00" cy="86.00" r="0.5" fill="black" />
<circle cx="19.00" cy="86.00" r="0.5" fill="black" />
<circle cx="21.00" cy="86.00" r="0.5" fill="black" />
<circle cx="23.00" cy="86.00" r="0.5" fill="black" />
<circle cx="26.00" cy="86.00" r="0.5" fill="black" />
<circle cx="28.00" cy="86.00" r="0.5" fill="black" />
<circle cx="30.00" cy="86.00" r="0.5" fill="black" />
<circle cx="33.00" cy="86.00" r="0.5" fill="black" />
<circle cx="35.00" cy="86.00" r="0.5" fill="black" />
<circle cx="38.00" cy="86.00" r="0.5" fill="black" />
<circle cx="16.00" cy="83.00" r="0.5" fill="black" />
<circle cx="19.00" cy="83.00" r="0.5" fill="black" />
<circle cx="21.00" cy="83.00" r="0.5" fill="black" />
<circle cx="23.00" cy="83.00" r="0.5" fill="black" />
<circle cx="26.00" cy="83.00" r="0.5" fill="black" />
<circle cx="28.00" cy="83.00" r="0.5" fill="black" />
<circle cx="30.00" cy="83.00" r="0.5" fill="black" />
<circle cx="33.00" cy="83.00" r="0.5" fill="black" />
<circle cx="35.00" cy="83.00" r="0.5" fill="black" />
<circle cx="38.00" cy="83.00" r="0.5" fill="black" />
<circle cx="40.00" cy="83.00" r="0.5" fill="black" />
<circle cx="16.00" cy="81.00" r="0.5" fill="black" />
<circle cx="18.00" cy="81.00" r="0.5" fill="black" />
<circle cx="19.00" cy="81.00" r="0.5" fill="black" />
<circle cx="21.00" cy="81.00" r="0.5" fill="black" />
<circle cx="23.00" cy="81.00" r="0.5" fill="black" />
<circle cx="26.00" cy="81.00" r="0.5" fill="black" />
<circle cx="28.00" cy="81.00" r="0.5" fill="black" />
<circle cx="30.00" cy="81.00" r="0.5" fill="black" />
<circle cx="31.00" cy="81.00" r="0.5" fill="black" />
<circle cx="33.00" cy="81.00" r="0.5" fill="black" />
<circle cx="35.00" cy="81.00" r="0.5" fill="black" />
<circle cx="37.00" cy="81.00" r="0.5" fill="black" />
<circle cx="38.00" cy="81.00" r="0.5" fill="black" />
<circle cx="40.00" cy="81.00" r="0.5" fill="black" />
<circle cx="42.00" cy="81.00" r="0.5" fill="black" />
<circle cx="45.00" cy="81.00" r="0.5" fill="black" />
<circle cx="47.00" cy="81.00" r="0.5" fill="black" />
<circle cx="52.00" cy="79.00" r="0.5" fill="black" />
<circle cx="16.00" cy="78.00" r="0.5" fill="black" />
<circle cx="19.00" cy="78.00" r="0.5" fill="black" />
<circle cx="21.00" cy="78.00" r="0.5" fill="black" />
<circle cx="23.00" cy="78.00" r="0.5" fill="black" />
<circle cx="26.00" cy="78.00" r="0.5" fill="black" />
<circle cx="28.00" cy="78.00" r="0.5" fill="black" />
<circle cx="30.00" cy="78.00" r="0.5" fill="black" />
<circle cx="33.00" cy="78.00" r="0.5" fill="black" />
<circle cx="35.00" cy="78.00" r="0.5" fill="black" />
<circle cx="38.00" cy="78.00" r="0.5" fill="black" />
<circle cx="40.00" cy="78.00" r="0.5" fill="black" />
<circle cx="42.00" cy="78.00" r="0.5" fill="black" />
<circle cx="45.00" cy="78.00" r="0.5" fill="black" />
<circle cx="47.00" cy="78.00" r="0.5" fill="black" />
<circle cx="49.00" cy="78.00" r="0.5" fill="black" />
<circle cx="52.00" cy="78.00" r="0.5" fill="black" />
<circle cx="14.00" cy="76.00" r="0.5" fill="black" />
<circle cx="16.00" cy="76.00" r="0.5" fill="black" />
<circle cx="18.00" cy="76.00" r="0.5" fill="black" />
<circle cx="19.00" cy="76.00" r="0.5" fill="black" />
<circle cx="21.00" cy="76.00" r="0.5" fill="black" />
<circle cx="23.00" cy="76.00" r="0.5" fill="black" />
<circle cx="26.00" cy="76.00" r="0.5" fill="black" />
<circle cx="28.00" cy="76.00" r="0.5" fill="black" />
<circle cx="30.00" cy="76.00" r="0.5" fill="black" />
<circle cx="31.00" cy="76.00" r="0.5" fill="black" />
<circle cx="33.00" cy="76.00" r="0.5" fill="black" />
<circle cx="35.00" cy="76.00" r="0.5" fill="black" />
<circle cx="37.00" cy="76.00" r="0.5" fill="black" />
<circle cx="38.00" cy="76.00" r="0.5" fill="black" />
<circle cx="40.00" cy="76.00" r="0.5" fill="black" />
<circle cx="42.00" cy="76.00" r="0.5" fill="black" />
<circle cx="45.00" cy="76.00" r="0.5" fill="black" />
<circle cx="47.00" cy="76.00" r="0.5" fill="black" />
<circle cx="49.00" cy="76.00" r="0.5" fill="black" />
<circle cx="50.00" cy="76.00" r="0.5" fill="black" />
<circle cx="52.00" cy="76.00" r="0.5" fill="black" />
<circle cx="54.00" cy="76.00" r="0.5" fill="black" />
<circle cx="14.00" cy="74.00" r="0.5" fill="black" />
<circle cx="16.00" cy="74.00" r="0.5" fill="black" />
<circle cx="21.00" cy="74.00" r="0.5" fill="black" />
<circle cx="23.00" cy="74.00" r="0.5" fill="black" />
<circle cx="26.00" cy="74.00" r="0.5" fill="black" />
<circle cx="28.00" cy="74.00" r="0.5" fill="black" />
<circle cx="33.00" cy="74.00" r="0.5" fill="black" />
<circle cx="35.00" cy="74.00" r="0.5" fill="black" />
<circle cx="40.00" cy="74.00" r="0.5" fill="black" />
<circle cx="42.00" cy="74.00" r="0.5" fill="black" />
<circle cx="45.00" cy="74.00" r="0.5" fill="black" />
<circle cx="47.00" cy="74.00" r="0.5" fill="black" />
<circle cx="52.00" cy="74.00" r="0.5" fill="black" />
<circle cx="54.00" cy="74.00" r="0.5" fill="black" />
<circle cx="59.00" cy="74.00" r="0.5" fill="black" />
<circle cx="61.00" cy="74.00" r="0.5" fill="black" />
<circle cx="64.00" cy="74.00" r="0.5" fill="black" />
<circle cx="14.00" cy="73.00" r="0.5" fill="black" />
<circle cx="16.00" cy="73.00" r="0.5" fill="black" />
<circle cx="21.00" cy="73.00" r="0.5" fill="black" />
<circle cx="23.00" cy="73.00" r="0.5" fill="black" />
<circle cx="26.00" cy="73.00" r="0.5" fill="black" />
<circle cx="28.00" cy="73.00" r="0.5" fill="black" />
<circle cx="33.00" cy="73.00" r="0.5" fill="black" />
<circle cx="35.00" cy="73.00" r="0.5" fill="black" />
<circle cx="40.00" cy="73.00" r="0.5" fill="black" />
<circle cx="42.00" cy="73.00" r="0.5" fill="black" />
<circle cx="45.00" cy="73.00" r="0.5" fill="black" />
<circle cx="47.00" cy="73.00" r="0.5" fill="black" />
<circle cx="52.00" cy="73.00" r="0.5" fill="black" />
<circle cx="54.00" cy="73.00" r="0.5" fill="black" />
<circle cx="59.00" cy="73.00" r="0.5" fill="black" />
<circle cx="61.00" cy="73.00" r="0.5" fill="black" />
<circle cx="64.00" cy="73.00" r="0.5" fill="black" />
<circle cx="14.00" cy="71.00" r="0.5" fill="black" />
<circle cx="16.00" cy="71.00" r="0.5" fill="black" />
<circle cx="18.00" cy="71.00" r="0.5" fill="black" />
<circle cx="19.00" cy="71.00" r="0.5" fill="black" />
<circle cx="21.00" cy="71.00" r="0.5" fill="black" />
<circle cx="23.00" cy="71.00" r="0.5" fill="black" />
<circle cx="26.00" cy="71.00" r="0.5" fill="black" />
<circle cx="28.00" cy="71.00" r="0.5" fill="black" />
<circle cx="30.00" cy="71.00" r="0.5" fill="black" />
<circle cx="31.00" cy="71.00" r="0.5" fill="black" />
<circle cx="33.00" cy="71.00" r="0.5" fill="black" />
<circle cx="35.00" cy="71.00" r="0.5" fill="black" />
<circle cx="37.00" cy="71.00" r="0.5" fill="black" />
<circle cx="38.00" cy="71.00" r="0.5" fill="black" />
<circle cx="40.00" cy="71.00" r="0.5" fill="black" />
<circle cx="42.00" cy="71.00" r="0.5" fill="black" />
<circle cx="45.00" cy="71.00" r="0.5" fill="black" />
<circle cx="47.00" cy="71.00" r="0.5" fill="black" />
<circle cx="49.00" cy="71.00" r="0.5" fill="black" />
<circle cx="50.00" cy="71.00" r="0.5" fill="black" />
<circle cx="52.00" cy="71.00" r="0.5" fill="black" />
<circle cx="54.00" cy="71.00" r="0.5" fill="black" />
<circle cx="56.00" cy="71.00" r="0.5" fill="black" />
<circle cx="57.00" cy="71.00" r="0.5" fill="black" />
<circle cx="59.00" cy="71.00" r="0.5" fill="black" />
<circle cx="61.00" cy="71.00" r="0.5" fill="black" />
<circle cx="64.00" cy="71.00" r="0.5" fill="black" />
<circle cx="14.00" cy="69.00" r="0.5" fill="black" />
<circle cx="16.00" cy="69.00" r="0.5" fill="black" />
<circle cx="19.00" cy="69.00" r="0.5" fill="black" />
<circle cx="21.00" cy="69.00" r="0.5" fill="black" />
<circle cx="23.00" cy="69.00" r="0.5" fill="black" />
<circle cx="26.00" cy="69.00" r="0.5" fill="black" />
<circle cx="28.00" cy="69.00" r="0.5" fill="black" />
<circle cx="30.00" cy="69.00" r="0.5" fill="black" />
<circle cx="33.00" cy="69.00" r="0.5" fill="black" />
<circle cx="35.00" cy="69.00" r="0.5" fill="black" />
<circle cx="38.00" cy="69.00" r="0.5" fill="black" />
<circle cx="40.00" cy="69.00" r="0.5" fill="black" />
<circle cx="42.00" cy="69.00" r="0.5" fill="black" />
<circle cx="45.00" cy="69.00" r="0.5" fill="black" />
<circle cx="47.00" cy="69.00" r="0.5" fill="black" />
<circle cx="49.00" cy="69.00" r="0.5" fill="black" />
<circle cx="52.00" cy="69.00" r="0.5" fill="black" />
<circle cx="54.00" cy="69.00" r="0.5" fill="black" />
<circle cx="57.00" cy="69.00" r="0.5" fill="black" />
<circle cx="59.00" cy="69.00" r="0.5" fill="black" />
<circle cx="61.00" cy="69.00" r="0.5" fill="black" />
<circle cx="64.00" cy="69.00" r="0.5" fill="black" />
<circle cx="66.00" cy="69.00" r="0.5" fill="black" />
<circle cx="21.00" cy="68.00" r="0.5" fill="black" />
<circle cx="28.00" cy="68.00" r="0.5" fill="black" />
<circle cx="40.00" cy="68.00" r="0.5" fill="black" />
<circle cx="47.00" cy="68.00" r="0.5" fill="black" />
<circle cx="59.00" cy="68.00" r="0.5" fill="black" />
<circle cx="66.00" cy="68.00" r="0.5" fill="black" />
<circle cx="14.00" cy="66.00" r="0.5" fill="black" />
<circle cx="16.00" cy="66.00" r="0.5" fill="black" />
<circle cx="18.00" cy="66.00" r="0.5" fill="black" />
<circle cx="19.00" cy="66.00" r="0.5" fill="black" />
<circle cx="21.00" cy="66.00" r="0.5" fill="black" />
<circle cx="23.00" cy="66.00" r="0.5" fill="black" />
<circle cx="26.00" cy="66.00" r="0.5" fill="black" />
<circle cx="28.00" cy="66.00" r="0.5" fill="black" />
<circle cx="30.00" cy="66.00" r="0.5" fill="black" />
<circle cx="31.00" cy="66.00" r="0.5" fill="black" />
<circle cx="33.00" cy="66.00" r="0.5" fill="black" />
<circle cx="35.00" cy="66.00" r="0.5" fill="black" />
<circle cx="37.00" cy="66.00" r="0.5" fill="black" />
<circle cx="38.00" cy="66.00" r="0.5" fill="black" />
<circle cx="40.00" cy="66.00" r="0.5" fill="black" />
<circle cx="42.00" cy="66.00" r="0.5" fill="black" />
<circle cx="45.00" cy="66.00" r="0.5" fill="black" />
<circle cx="47.00" cy="66.00" r="0.5" fill="black" />
<circle cx="49.00" cy="66.00" r="0.5" fill="black" />
<circle cx="50.00" cy="66.00" r="0.5" fill="black" />
<circle cx="52.00" cy="66.00" r="0.5" fill="black" />
<circle cx="54.00" cy="66.00" r="0.5" fill="black" />
<circle cx="56.00" cy="66.00" r="0.5" fill="black" />
<circle cx="57.00" cy="66.00" r="0.5" fill="black" />
<circle cx="59.00" cy="66.00" r="0.5" fill="black" />
<circle cx="61.00" cy="66.00" r="0.5" fill="black" />
<circle cx="64.00" cy="66.00" r="0.5" fill="black" />
<circle cx="66.00" cy="66.00" r="0.5" fill="black" />
<circle cx="14.00" cy="64.00" r="0.5" fill="black" />
<circle cx="16.00" cy="64.00" r="0.5" fill="black" />
<circle cx="19.00" cy="64.00" r="0.5" fill="black" />
<circle cx="21.00" cy="64.00" r="0.5" fill="black" />
<circle cx="23.00" cy="64.00" r="0.5" fill="black" />
<circle cx="26.00" cy="64.00" r="0.5" fill="black" />
<circle cx="28.00" cy="64.00" r="0.5" fill="black" />
<circle cx="30.00" cy="64.00" r="0.5" fill="black" />
<circle cx="33.00" cy="64.00" r="0.5" fill="black" />
<circle cx="35.00" cy="64.00" r="0.5" fill="black" />
<circle cx="38.00" cy="64.00" r="0.5" fill="black" />
<circle cx="40.00" cy="64.00" r="0.5" fill="black" />
<circle cx="42.00" cy="64.00" r="0.5" fill="black" />
<circle cx="45.00" cy="64.00" r="0.5" fill="black" />
<circle cx="47.00" cy="64.00" r="0.5" fill="black" />
<circle cx="49.00" cy="64.00" r="0.5" fill="black" />
<circle cx="52.00" cy="64.00" r="0.5" fill="black" />
<circle cx="54.00" cy="64.00" r="0.5" fill="black" />
<circle cx="56.00" cy="64.00" r="0.5" fill="black" />
<circle cx="57.00" cy="64.00" r="0.5" fill="black" />
<circle cx="59.00" cy="64.00" r="0.5" fill="black" />
<circle cx="61.00" cy="64.00" r="0.5" fill="black" />
<circle cx="64.00" cy="64.00" r="0.5" fill="black" />
<circle cx="14.00" cy="61.00" r="0.5" fill="black" />
<circle cx="16.00" cy="61.00" r="0.5" fill="black" />
<circle cx="19.00" cy="61.00" r="0.5" fill="black" />
<circle cx="21.00" cy="61.00" r="0.5" fill="black" />
<circle cx="23.00" cy="61.00" r="0.5" fill="black" />
<circle cx="26.00" cy="61.00" r="0.5" fill="black" />
<circle cx="28.00" cy="61.00" r="0.5" fill="black" />
<circle cx="30.00" cy="61.00" r="0.5" fill="black" />
<circle cx="33.00" cy="61.00" r="0.5" fill="black" />
<circle cx="35.00" cy="61.00" r="0.5" fill="black" />
<circle cx="38.00" cy="61.00" r="0.5" fill="black" />
<circle cx="40.00" cy="61.00" r="0.5" fill="black" />
<circle cx="42.00" cy="61.00" r="0.5" fill="black" />
<circle cx="45.00" cy="61.00" r="0.5" fill="black" />
<circle cx="47.00" cy="61.00" r="0.5" fill="black" />
<circle cx="49.00" cy="61.00" r="0.5" fill="black" />
<circle cx="52.00" cy="61.00" r="0.5" fill="black" />
<circle cx="54.00" cy="61.00" r="0.5" fill="black" />
<circle cx="57.00" cy="61.00" r="0.5" fill="black" />
<circle cx="59.00" cy="61.00" r="0.5" fill="black" />
<circle cx="61.00" cy="61.00" r="0.5" fill="black" />
<circle cx="64.00" cy="61.00" r="0.5" fill="black" />
<circle cx="66.00" cy="61.00" r="0.5" fill="black" />
<circle cx="14.00" cy="59.00" r="0.5" fill="black" />
<circle cx="16.00" cy="59.00" r="0.5" fill="black" />
<circle cx="18.00" cy="59.00" r="0.5" fill="black" />
<circle cx="19.00" cy="59.00" r="0.5" fill="black" />
<circle cx="21.00" cy="59.00" r="0.5" fill="black" />
<circle cx="23.00" cy="59.00" r="0.5" fill="black" />
<circle cx="26.00" cy="59.00" r="0.5" fill="black" />
<circle cx="28.00" cy="59.00" r="0.5" fill="black" />
<circle cx="30.00" cy="59.00" r="0.5" fill="black" />
<circle cx="31.00" cy="59.00" r="0.5" fill="black" />
<circle cx="33.00" cy="59.00" r="0.5" fill="black" />
<circle cx="35.00" cy="59.00" r="0.5" fill="black" />
<circle cx="37.00" cy="59.00" r="0.5" fill="black" />
<circle cx="38.00" cy="59.00" r="0.5" fill="black" />
<circle cx="40.00" cy="59.00" r="0.5" fill="black" />
<circle cx="42.00" cy="59.00" r="0.5" fill="black" />
<circle cx="45.00" cy="59.00" r="0.5" fill="black" />
<circle cx="47.00" cy="59.00" r="0.5" fill="black" />
<circle cx="49.00" cy="59.00" r="0.5" fill="black" />
<circle cx="50.00" cy="59.00" r="0.5" fill="black" />
<circle cx="52.00" cy="59.00" r="0.5" fill="black" />
<circle cx="54.00" cy="59.00" r="0.5" fill="black" />
<circle cx="56.00" cy="59.00" r="0.5" fill="black" />
<circle cx="57.00" cy="59.00" r="0.5" fill="black" />
<circle cx="59.00" cy="59.00" r="0.5" fill="black" />
<circle cx="61.00" cy="59.00" r="0.5" fill="black" />
<circle cx="64.00" cy="59.00" r="0.5" fill="black" />
<circle cx="66.00" cy="59.00" r="0.5" fill="black" />
<circle cx="16.00" cy="57.00" r="0.5" fill="black" />
<circle cx="21.00" cy="57.00" r="0.5" fill="black" />
<circle cx="28.00" cy="57.00" r="0.5" fill="black" />
<circle cx="33.00" cy="57.00" r="0.5" fill="black" />
<circle cx="35.00" cy="57.00" r="0.5" fill="black" />
<circle cx="40.00" cy="57.00" r="0.5" fill="black" />
<circle cx="47.00" cy="57.00" r="0.5" fill="black" />
<circle cx="52.00" cy="57.00" r="0.5" fill="black" />
<circle cx="54.00" cy="57.00" r="0.5" fill="black" />
<circle cx="59.00" cy="57.00" r="0.5" fill="black" />
<circle cx="66.00" cy="57.00" r="0.5" fill="black" />
<circle cx="71.00" cy="57.00" r="0.5" fill="black" />
<circle cx="73.00" cy="57.00" r="0.5" fill="black" />
<circle cx="16.00" cy="56.00" r="0.5" fill="black" />
<circle cx="19.00" cy="56.00" r="0.5" fill="black" />
<circle cx="21.00" cy="56.00" r="0.5" fill="black" />
<circle cx="23.00" cy="56.00" r="0.5" fill="black" />
<circle cx="26.00" cy="56.00" r="0.5" fill="black" />
<circle cx="28.00" cy="56.00" r="0.5" fill="black" />
<circle cx="30.00" cy="56.00" r="0.5" fill="black" />
<circle cx="33.00" cy="56.00" r="0.5" fill="black" />
<circle cx="35.00" cy="56.00" r="0.5" fill="black" />
<circle cx="38.00" cy="56.00" r="0.5" fill="black" />
<circle cx="40.00" cy="56.00" r="0.5" fill="black" />
<circle cx="42.00" cy="56.00" r="0.5" fill="black" />
<circle cx="45.00" cy="56.00" r="0.5" fill="black" />
<circle cx="47.00" cy="56.00" r="0.5" fill="black" />
<circle cx="49.00" cy="56.00" r="0.5" fill="black" />
<circle cx="52.00" cy="56.00" r="0.5" fill="black" />
<circle cx="54.00" cy="56.00" r="0.5" fill="black" />
<circle cx="59.00" cy="56.00" r="0.5" fill="black" />
<circle cx="61.00" cy="56.00" r="0.5" fill="black" />
<circle cx="64.00" cy="56.00" r="0.5" fill="black" />
<circle cx="66.00" cy="56.00" r="0.5" fill="black" />
<circle cx="68.00" cy="56.00" r="0.5" fill="black" />
<circle cx="71.00" cy="56.00" r="0.5" fill="black" />
<circle cx="73.00" cy="56.00" r="0.5" fill="black" />
<circle cx="76.00" cy="56.00" r="0.5" fill="black" />
<circle cx="14.00" cy="54.00" r="0.5" fill="black" />
<circle cx="16.00" cy="54.00" r="0.5" fill="black" />
<circle cx="19.00" cy="54.00" r="0.5" fill="black" />
<circle cx="21.00" cy="54.00" r="0.5" fill="black" />
<circle cx="23.00" cy="54.00" r="0.5" fill="black" />
<circle cx="26.00" cy="54.00" r="0.5" fill="black" />
<circle cx="28.00" cy="54.00" r="0.5" fill="black" />
<circle cx="30.00" cy="54.00" r="0.5" fill="black" />
<circle cx="31.00" cy="54.00" r="0.5" fill="black" />
<circle cx="33.00" cy="54.00" r="0.5" fill="black" />
<circle cx="35.00" cy="54.00" r="0.5" fill="black" />
<circle cx="38.00" cy="54.00" r="0.5" fill="black" />
<circle cx="40.00" cy="54.00" r="0.5" fill="black" />
<circle cx="42.00" cy="54.00" r="0.5" fill="black" />
<circle cx="45.00" cy="54.00" r="0.5" fill="black" />
<circle cx="47.00" cy="54.00" r="0.5" fill="black" />
<circle cx="49.00" cy="54.00" r="0.5" fill="black" />
<circle cx="50.00" cy="54.00" r="0.5" fill="black" />
<circle cx="52.00" cy="54.00" r="0.5" fill="black" />
<circle cx="54.00" cy="54.00" r="0.5" fill="black" />
<circle cx="56.00" cy="54.00" r="0.5" fill="black" />
<circle cx="57.00" cy="54.00" r="0.5" fill="black" />
<circle cx="59.00" cy="54.00" r="0.5" fill="black" />
<circle cx="61.00" cy="54.00" r="0.5" fill="black" />
<circle cx="64.00" cy="54.00" r="0.5" fill="black" />
<circle cx="66.00" cy="54.00" r="0.5" fill="black" />
<circle cx="68.00" cy="54.00" r="0.5" fill="black" />
<circle cx="69.00" cy="54.00" r="0.5" fill="black" />
<circle cx="71.00" cy="54.00" r="0.5" fill="black" />
<circle cx="73.00" cy="54.00" r="0.5" fill="black" />
<circle cx="75.00" cy="54.00" r="0.5" fill="black" />
<circle cx="76.00" cy="54.00" r="0.5" fill="black" />
<circle cx="11.00" cy="52.00" r="0.5" fill="black" />
<circle cx="14.00" cy="52.00" r="0.5" fill="black" />
<circle cx="16.00" cy="52.00" r="0.5" fill="black" />
<circle cx="21.00" cy="52.00" r="0.5" fill="black" />
<circle cx="23.00" cy="52.00" r="0.5" fill="black" />
<circle cx="26.00" cy="52.00" r="0.5" fill="black" />
<circle cx="28.00" cy="52.00" r="0.5" fill="black" />
<circle cx="33.00" cy="52.00" r="0.5" fill="black" />
<circle cx="35.00" cy="52.00" r="0.5" fill="black" />
<circle cx="40.00" cy="52.00" r="0.5" fill="black" />
<circle cx="42.00" cy="52.00" r="0.5" fill="black" />
<circle cx="45.00" cy="52.00" r="0.5" fill="black" />
<circle cx="47.00" cy="52.00" r="0.5" fill="black" />
<circle cx="52.00" cy="52.00" r="0.5" fill="black" />
<circle cx="54.00" cy="52.00" r="0.5" fill="black" />
<circle cx="59.00" cy="52.00" r="0.5" fill="black" />
<circle cx="61.00" cy="52.00" r="0.5" fill="black" />
<circle cx="64.00" cy="52.00" r="0.5" fill="black" />
<circle cx="66.00" cy="52.00" r="0.5" fill="black" />
<circle cx="71.00" cy="52.00" r="0.5" fill="black" />
<circle cx="73.00" cy="52.00" r="0.5" fill="black" />
<circle cx="14.00" cy="51.00" r="0.5" fill="black" />
<circle cx="16.00" cy="51.00" r="0.5" fill="black" />
<circle cx="21.00" cy="51.00" r="0.5" fill="black" />
<circle cx="28.00" cy="51.00" r="0.5" fill="black" />
<circle cx="33.00" cy="51.00" r="0.5" fill="black" />
<circle cx="35.00" cy="51.00" r="0.5" fill="black" />
<circle cx="40.00" cy="51.00" r="0.5" fill="black" />
<circle cx="42.00" cy="51.00" r="0.5" fill="black" />
<circle cx="47.00" cy="51.00" r="0.5" fill="black" />
<circle cx="52.00" cy="51.00" r="0.5" fill="black" />
<circle cx="54.00" cy="51.00" r="0.5" fill="black" />
<circle cx="59.00" cy="51.00" r="0.5" fill="black" />
<circle cx="61.00" cy="51.00" r="0.5" fill="black" />
<circle cx="66.00" cy="51.00" r="0.5" fill="black" />
<circle cx="71.00" cy="51.00" r="0.5" fill="black" />
<circle cx="73.00" cy="51.00" r="0.5" fill="black" />
<circle cx="11.00" cy="49.00" r="0.5" fill="black" />
<circle cx="12.00" cy="49.00" r="0.5" fill="black" />
<circle cx="14.00" cy="49.00" r="0.5" fill="black" />
<circle cx="16.00" cy="49.00" r="0.5" fill="black" />
<circle cx="18.00" cy="49.00" r="0.5" fill="black" />
<circle cx="19.00" cy="49.00" r="0.5" fill="black" />
<circle cx="21.00" cy="49.00" r="0.5" fill="black" />
<circle cx="23.00" cy="49.00" r="0.5" fill="black" />
<circle cx="26.00" cy="49.00" r="0.5" fill="black" />
<circle cx="28.00" cy="49.00" r="0.5" fill="black" />
<circle cx="30.00" cy="49.00" r="0.5" fill="black" />
<circle cx="31.00" cy="49.00" r="0.5" fill="black" />
<circle cx="33.00" cy="49.00" r="0.5" fill="black" />
<circle cx="35.00" cy="49.00" r="0.5" fill="black" />
<circle cx="37.00" cy="49.00" r="0.5" fill="black" />
<circle cx="38.00" cy="49.00" r="0.5" fill="black" />
<circle cx="40.00" cy="49.00" r="0.5" fill="black" />
<circle cx="42.00" cy="49.00" r="0.5" fill="black" />
<circle cx="45.00" cy="49.00" r="0.5" fill="black" />
<circle cx="47.00" cy="49.00" r="0.5" fill="black" />
<circle cx="49.00" cy="49.00" r="0.5" fill="black" />
<circle cx="50.00" cy="49.00" r="0.5" fill="black" />
<circle cx="52.00" cy="49.00" r="0.5" fill="black" />
<circle cx="54.00" cy="49.00" r="0.5" fill="black" />
<circle cx="56.00" cy="49.00" r="0.5" fill="black" />
<circle cx="57.00" cy="49.00" r="0.5" fill="black" />
<circle cx="59.00" cy="49.00" r="0.5" fill="black" />
<circle cx="61.00" cy="49.00" r="0.5" fill="black" />
<circle cx="64.00" cy="49.00" r="0.5" fill="black" />
<circle cx="66.00" cy="49.00" r="0.5" fill="black" />
<circle cx="68.00" cy="49.00" r="0.5" fill="black" />
<circle cx="71.00" cy="49.00" r="0.5" fill="black" />
<circle cx="73.00" cy="49.00" r="0.5" fill="black" />
<circle cx="75.00" cy="49.00" r="0.5" fill="black" />
<circle cx="76.00" cy="49.00" r="0.5" fill="black" />
<circle cx="78.00" cy="49.00" r="0.5" fill="black" />
<circle cx="14.00" cy="47.00" r="0.5" fill="black" />
<circle cx="16.00" cy="47.00" r="0.5" fill="black" />
<circle cx="19.00" cy="47.00" r="0.5" fill="black" />
<circle cx="21.00" cy="47.00" r="0.5" fill="black" />
<circle cx="23.00" cy="47.00" r="0.5" fill="black" />
<circle cx="26.00" cy="47.00" r="0.5" fill="black" />
<circle cx="28.00" cy="47.00" r="0.5" fill="black" />
<circle cx="30.00" cy="47.00" r="0.5" fill="black" />
<circle cx="33.00" cy="47.00" r="0.5" fill="black" />
<circle cx="35.00" cy="47.00" r="0.5" fill="black" />
<circle cx="38.00" cy="47.00" r="0.5" fill="black" />
<circle cx="40.00" cy="47.00" r="0.5" fill="black" />
<circle cx="42.00" cy="47.00" r="0.5" fill="black" />
<circle cx="45.00" cy="47.00" r="0.5" fill="black" />
<circle cx="47.00" cy="47.00" r="0.5" fill="black" />
<circle cx="49.00" cy="47.00" r="0.5" fill="black" />
<circle cx="52.00" cy="47.00" r="0.5" fill="black" />
<circle cx="54.00" cy="47.00" r="0.5" fill="black" />
<circle cx="57.00" cy="47.00" r="0.5" fill="black" />
<circle cx="59.00" cy="47.00" r="0.5" fill="black" />
<circle cx="61.00" cy="47.00" r="0.5" fill="black" />
<circle cx="64.00" cy="47.00" r="0.5" fill="black" />
<circle cx="66.00" cy="47.00" r="0.5" fill="black" />
<circle cx="68.00" cy="47.00" r="0.5" fill="black" />
<circle cx="71.00" cy="47.00" r="0.5" fill="black" />
<circle cx="73.00" cy="47.00" r="0.5" fill="black" />
<circle cx="76.00" cy="47.00" r="0.5" fill="black" />
<circle cx="78.00" cy="47.00" r="0.5" fill="black" />
<circle cx="80.00" cy="47.00" r="0.5" fill="black" />
<circle cx="14.00" cy="44.00" r="0.5" fill="black" />
<circle cx="16.00" cy="44.00" r="0.5" fill="black" />
<circle cx="19.00" cy="44.00" r="0.5" fill="black" />
<circle cx="21.00" cy="44.00" r="0.5" fill="black" />
<circle cx="23.00" cy="44.00" r="0.5" fill="black" />
<circle cx="26.00" cy="44.00" r="0.5" fill="black" />
<circle cx="28.00" cy="44.00" r="0.5" fill="black" />
<circle cx="30.00" cy="44.00" r="0.5" fill="black" />
<circle cx="33.00" cy="44.00" r="0.5" fill="black" />
<circle cx="35.00" cy="44.00" r="0.5" fill="black" />
<circle cx="38.00" cy="44.00" r="0.5" fill="black" />
<circle cx="40.00" cy="44.00" r="0.5" fill="black" />
<circle cx="42.00" cy="44.00" r="0.5" fill="black" />
<circle cx="45.00" cy="44.00" r="0.5" fill="black" />
<circle cx="47.00" cy="44.00" r="0.5" fill="black" />
<circle cx="49.00" cy="44.00" r="0.5" fill="black" />
<circle cx="52.00" cy="44.00" r="0.5" fill="black" />
<circle cx="54.00" cy="44.00" r="0.5" fill="black" />
<circle cx="56.00" cy="44.00" r="0.5" fill="black" />
<circle cx="57.00" cy="44.00" r="0.5" fill="black" />
<circle cx="59.00" cy="44.00" r="0.5" fill="black" />
<circle cx="61.00" cy="44.00" r="0.5" fill="black" />
<circle cx="64.00" cy="44.00" r="0.5" fill="black" />
<circle cx="66.00" cy="44.00" r="0.5" fill="black" />
<circle cx="68.00" cy="44.00" r="0.5" fill="black" />
<circle cx="71.00" cy="44.00" r="0.5" fill="black" />
<circle cx="73.00" cy="44.00" r="0.5" fill="black" />
<circle cx="75.00" cy="44.00" r="0.5" fill="black" />
<circle cx="76.00" cy="44.00" r="0.5" fill="black" />
<circle cx="78.00" cy="44.00" r="0.5" fill="black" />
<circle cx="80.00" cy="44.00" r="0.5" fill="black" />
<circle cx="83.00" cy="44.00" r="0.5" fill="black" />
<circle cx="14.00" cy="42.00" r="0.5" fill="black" />
<circle cx="16.00" cy="42.00" r="0.5" fill="black" />
<circle cx="19.00" cy="42.00" r="0.5" fill="black" />
<circle cx="21.00" cy="42.00" r="0.5" fill="black" />
<circle cx="23.00" cy="42.00" r="0.5" fill="black" />
<circle cx="26.00" cy="42.00" r="0.5" fill="black" />
<circle cx="28.00" cy="42.00" r="0.5" fill="black" />
<circle cx="30.00" cy="42.00" r="0.5" fill="black" />
<circle cx="31.00" cy="42.00" r="0.5" fill="black" />
<circle cx="33.00" cy="42.00" r="0.5" fill="black" />
<circle cx="35.00" cy="42.00" r="0.5" fill="black" />
<circle cx="37.00" cy="42.00" r="0.5" fill="black" />
<circle cx="38.00" cy="42.00" r="0.5" fill="black" />
<circle cx="40.00" cy="42.00" r="0.5" fill="black" />
<circle cx="42.00" cy="42.00" r="0.5" fill="black" />
<circle cx="45.00" cy="42.00" r="0.5" fill="black" />
<circle cx="47.00" cy="42.00" r="0.5" fill="black" />
<circle cx="49.00" cy="42.00" r="0.5" fill="black" />
<circle cx="52.00" cy="42.00" r="0.5" fill="black" />
<circle cx="54.00" cy="42.00" r="0.5" fill="black" />
<circle cx="56.00" cy="42.00" r="0.5" fill="black" />
<circle cx="57.00" cy="42.00" r="0.5" fill="black" />
<circle cx="59.00" cy="42.00" r="0.5" fill="black" />
<circle cx="61.00" cy="42.00" r="0.5" fill="black" />
<circle cx="64.00" cy="42.00" r="0.5" fill="black" />
<circle cx="66.00" cy="42.00" r="0.5" fill="black" />
<circle cx="68.00" cy="42.00" r="0.5" fill="black" />
<circle cx="71.00" cy="42.00" r="0.5" fill="black" />
<circle cx="73.00" cy="42.00" r="0.5" fill="black" />
<circle cx="75.00" cy="42.00" r="0.5" fill="black" />
<circle cx="76.00" cy="42.00" r="0.5" fill="black" />
<circle cx="78.00" cy="42.00" r="0.5" fill="black" />
<circle cx="80.00" cy="42.00" r="0.5" fill="black" />
<circle cx="16.00" cy="39.00" r="0.5" fill="black" />
<circle cx="19.00" cy="39.00" r="0.5" fill="black" />
<circle cx="21.00" cy="39.00" r="0.5" fill="black" />
<circle cx="23.00" cy="39.00" r="0.5" fill="black" />
<circle cx="26.00" cy="39.00" r="0.5" fill="black" />
<circle cx="28.00" cy="39.00" r="0.5" fill="black" />
<circle cx="30.00" cy="39.00" r="0.5" fill="black" />
<circle cx="33.00" cy="39.00" r="0.5" fill="black" />
<circle cx="35.00" cy="39.00" r="0.5" fill="black" />
<circle cx="38.00" cy="39.00" r="0.5" fill="black" />
<circle cx="40.00" cy="39.00" r="0.5" fill="black" />
<circle cx="42.00" cy="39.00" r="0.5" fill="black" />
<circle cx="45.00" cy="39.00" r="0.5" fill="black" />
<circle cx="47.00" cy="39.00" r="0.5" fill="black" />
<circle cx="49.00" cy="39.00" r="0.5" fill="black" />
<circle cx="52.00" cy="39.00" r="0.5" fill="black" />
<circle cx="54.00" cy="39.00" r="0.5" fill="black" />
<circle cx="57.00" cy="39.00" r="0.5" fill="black" />
<circle cx="59.00" cy="39.00" r="0.5" fill="black" />
<circle cx="61.00" cy="39.00" r="0.5" fill="black" />
<circle cx="64.00" cy="39.00" r="0.5" fill="black" />
<circle cx="66.00" cy="39.00" r="0.5" fill="black" />
<circle cx="68.00" cy="39.00" r="0.5" fill="black" />
<circle cx="71.00" cy="39.00" r="0.5" fill="black" />
<circle cx="73.00" cy="39.00" r="0.5" fill="black" />
<circle cx="76.00" cy="39.00" r="0.5" fill="black" />
<circle cx="78.00" cy="39.00" r="0.5" fill="black" />
<circle cx="80.00" cy="39.00" r="0.5" fill="black" />
<circle cx="16.00" cy="37.00" r="0.5" fill="black" />
<circle cx="18.00" cy="37.00" r="0.5" fill="black" />
<circle cx="19.00" cy="37.00" r="0.5" fill="black" />
<circle cx="21.00" cy="37.00" r="0.5" fill="black" />
<circle cx="23.00" cy="37.00" r="0.5" fill="black" />
<circle cx="26.00" cy="37.00" r="0.5" fill="black" />
<circle cx="28.00" cy="37.00" r="0.5" fill="black" />
<circle cx="30.00" cy="37.00" r="0.5" fill="black" />
<circle cx="31.00" cy="37.00" r="0.5" fill="black" />
<circle cx="33.00" cy="37.00" r="0.5" fill="black" />
<circle cx="35.00" cy="37.00" r="0.5" fill="black" />
<circle cx="37.00" cy="37.00" r="0.5" fill="black" />
<circle cx="38.00" cy="37.00" r="0.5" fill="black" />
<circle cx="40.00" cy="37.00" r="0.5" fill="black" />
<circle cx="42.00" cy="37.00" r="0.5" fill="black" />
<circle cx="45.00" cy="37.00" r="0.5" fill="black" />
<circle cx="47.00" cy="37.00" r="0.5" fill="black" />
<circle cx="49.00" cy="37.00" r="0.5" fill="black" />
<circle cx="50.00" cy="37.00" r="0.5" fill="black" />
<circle cx="52.00" cy="37.00" r="0.5" fill="black" />
<circle cx="54.00" cy="37.00" r="0.5" fill="black" />
<circle cx="56.00" cy="37.00" r="0.5" fill="black" />
<circle cx="57.00" cy="37.00" r="0.5" fill="black" />
<circle cx="59.00" cy="37.00" r="0.5" fill="black" />
<circle cx="61.00" cy="37.00" r="0.5" fill="black" />
<circle cx="64.00" cy="37.00" r="0.5" fill="black" />
<circle cx="66.00" cy="37.00" r="0.5" fill="black" />
<circle cx="68.00" cy="37.00" r="0.5" fill="black" />
<circle cx="69.00" cy="37.00" r="0.5" fill="black" />
<circle cx="71.00" cy="37.00" r="0.5" fill="black" />
<circle cx="73.00" cy="37.00" r="0.5" fill="black" />
<circle cx="75.00" cy="37.00" r="0.5" fill="black" />
<circle cx="76.00" cy="37.00" r="0.5" fill="black" />
<circle cx="78.00" cy="37.00" r="0.5" fill="black" />
<circle cx="80.00" cy="37.00" r="0.5" fill="black" />
<circle cx="16.00" cy="35.00" r="0.5" fill="black" />
<circle cx="21.00" cy="35.00" r="0.5" fill="black" />
<circle cx="26.00" cy="35.00" r="0.5" fill="black" />
<circle cx="28.00" cy="35.00" r="0.5" fill="black" />
<circle cx="33.00" cy="35.00" r="0.5" fill="black" />
<circle cx="35.00" cy="35.00" r="0.5" fill="black" />
<circle cx="40.00" cy="35.00" r="0.5" fill="black" />
<circle cx="42.00" cy="35.00" r="0.5" fill="black" />
<circle cx="47.00" cy="35.00" r="0.5" fill="black" />
<circle cx="52.00" cy="35.00" r="0.5" fill="black" />
<circle cx="54.00" cy="35.00" r="0.5" fill="black" />
<circle cx="59.00" cy="35.00" r="0.5" fill="black" />
<circle cx="61.00" cy="35.00" r="0.5" fill="black" />
<circle cx="78.00" cy="35.00" r="0.5" fill="black" />
<circle cx="16.00" cy="34.00" r="0.5" fill="black" />
<circle cx="21.00" cy="34.00" r="0.5" fill="black" />
<circle cx="23.00" cy="34.00" r="0.5" fill="black" />
<circle cx="26.00" cy="34.00" r="0.5" fill="black" />
<circle cx="28.00" cy="34.00" r="0.5" fill="black" />
<circle cx="33.00" cy="34.00" r="0.5" fill="black" />
<circle cx="35.00" cy="34.00" r="0.5" fill="black" />
<circle cx="40.00" cy="34.00" r="0.5" fill="black" />
<circle cx="42.00" cy="34.00" r="0.5" fill="black" />
<circle cx="45.00" cy="34.00" r="0.5" fill="black" />
<circle cx="47.00" cy="34.00" r="0.5" fill="black" />
<circle cx="52.00" cy="34.00" r="0.5" fill="black" />
<circle cx="54.00" cy="34.00" r="0.5" fill="black" />
<circle cx="59.00" cy="34.00" r="0.5" fill="black" />
<circle cx="61.00" cy="34.00" r="0.5" fill="black" />
<circle cx="78.00" cy="34.00" r="0.5" fill="black" />
<circle cx="18.00" cy="32.00" r="0.5" fill="black" />
<circle cx="19.00" cy="32.00" r="0.5" fill="black" />
<circle cx="21.00" cy="32.00" r="0.5" fill="black" />
<circle cx="23.00" cy="32.00" r="0.5" fill="black" />
<circle cx="26.00" cy="32.00" r="0.5" fill="black" />
<circle cx="28.00" cy="32.00" r="0.5" fill="black" />
<circle cx="30.00" cy="32.00" r="0.5" fill="black" />
<circle cx="31.00" cy="32.00" r="0.5" fill="black" />
<circle cx="33.00" cy="32.00" r="0.5" fill="black" />
<circle cx="35.00" cy="32.00" r="0.5" fill="black" />
<circle cx="37.00" cy="32.00" r="0.5" fill="black" />
<circle cx="38.00" cy="32.00" r="0.5" fill="black" />
<circle cx="40.00" cy="32.00" r="0.5" fill="black" />
<circle cx="42.00" cy="32.00" r="0.5" fill="black" />
<circle cx="45.00" cy="32.00" r="0.5" fill="black" />
<circle cx="47.00" cy="32.00" r="0.5" fill="black" />
<circle cx="49.00" cy="32.00" r="0.5" fill="black" />
<circle cx="50.00" cy="32.00" r="0.5" fill="black" />
<circle cx="52.00" cy="32.00" r="0.5" fill="black" />
<circle cx="54.00" cy="32.00" r="0.5" fill="black" />
<circle cx="56.00" cy="32.00" r="0.5" fill="black" />
<circle cx="57.00" cy="32.00" r="0.5" fill="black" />
<circle cx="80.00" cy="32.00" r="0.5" fill="black" />
<circle cx="16.00" cy="30.00" r="0.5" fill="black" />
<circle cx="19.00" cy="30.00" r="0.5" fill="black" />
<circle cx="21.00" cy="30.00" r="0.5" fill="black" />
<circle cx="23.00" cy="30.00" r="0.5" fill="black" />
<circle cx="26.00" cy="30.00" r="0.5" fill="black" />
<circle cx="28.00" cy="30.00" r="0.5" fill="black" />
<circle cx="30.00" cy="30.00" r="0.5" fill="black" />
<circle cx="33.00" cy="30.00" r="0.5" fill="black" />
<circle cx="35.00" cy="30.00" r="0.5" fill="black" />
<circle cx="38.00" cy="30.00" r="0.5" fill="black" />
<circle cx="40.00" cy="30.00" r="0.5" fill="black" />
<circle cx="42.00" cy="30.00" r="0.5" fill="black" />
<circle cx="45.00" cy="30.00" r="0.5" fill="black" />
<circle cx="47.00" cy="30.00" r="0.5" fill="black" />
<circle cx="49.00" cy="30.00" r="0.5" fill="black" />
<circle cx="52.00" cy="30.00" r="0.5" fill="black" />
<circle cx="54.00" cy="30.00" r="0.5" fill="black" />
<circle cx="16.00" cy="29.00" r="0.5" fill="black" />
<circle cx="21.00" cy="29.00" r="0.5" fill="black" />
<circle cx="28.00" cy="29.00" r="0.5" fill="black" />
<circle cx="35.00" cy="29.00" r="0.5" fill="black" />
<circle cx="40.00" cy="29.00" r="0.5" fill="black" />
<circle cx="47.00" cy="29.00" r="0.5" fill="black" />
<circle cx="52.00" cy="29.00" r="0.5" fill="black" />
<circle cx="54.00" cy="29.00" r="0.5" fill="black" />
<circle cx="18.00" cy="27.00" r="0.5" fill="black" />
<circle cx="19.00" cy="27.00" r="0.5" fill="black" />
<circle cx="21.00" cy="27.00" r="0.5" fill="black" />
<circle cx="23.00" cy="27.00" r="0.5" fill="black" />
<circle cx="26.00" cy="27.00" r="0.5" fill="black" />
<circle cx="28.00" cy="27.00" r="0.5" fill="black" />
<circle cx="30.00" cy="27.00" r="0.5" fill="black" />
<circle cx="31.00" cy="27.00" r="0.5" fill="black" />
<circle cx="33.00" cy="27.00" r="0.5" fill="black" />
<circle cx="35.00" cy="27.00" r="0.5" fill="black" />
<circle cx="37.00" cy="27.00" r="0.5" fill="black" />
<circle cx="38.00" cy="27.00" r="0.5" fill="black" />
<circle cx="40.00" cy="27.00" r="0.5" fill="black" />
<circle cx="42.00" cy="27.00" r="0.5" fill="black" />
<circle cx="45.00" cy="27.00" r="0.5" fill="black" />
<circle cx="47.00" cy="27.00" r="0.5" fill="black" />
<circle cx="49.00" cy="27.00" r="0.5" fill="black" />
<circle cx="50.00" cy="27.00" r="0.5" fill="black" />
<circle cx="52.00" cy="27.00" r="0.5" fill="black" />
<circle cx="54.00" cy="27.00" r="0.5" fill="black" />
<circle cx="18.00" cy="25.00" r="0.5" fill="black" />
<circle cx="19.00" cy="25.00" r="0.5" fill="black" />
<circle cx="21.00" cy="25.00" r="0.5" fill="black" />
<circle cx="23.00" cy="25.00" r="0.5" fill="black" />
<circle cx="26.00" cy="25.00" r="0.5" fill="black" />
<circle cx="28.00" cy="25.00" r="0.5" fill="black" />
<circle cx="30.00" cy="25.00" r="0.5" fill="black" />
<circle cx="33.00" cy="25.00" r="0.5" fill="black" />
<circle cx="35.00" cy="25.00" r="0.5" fill="black" />
<circle cx="38.00" cy="25.00" r="0.5" fill="black" />
<circle cx="40.00" cy="25.00" r="0.5" fill="black" />
<circle cx="42.00" cy="25.00" r="0.5" fill="black" />
<circle cx="45.00" cy="25.00" r="0.5" fill="black" />
<circle cx="47.00" cy="25.00" r="0.5" fill="black" />
<circle cx="49.00" cy="25.00" r="0.5" fill="black" />
<circle cx="52.00" cy="25.00" r="0.5" fill="black" />
<circle cx="54.00" cy="25.00" r="0.5" fill="black" />
<circle cx="21.00" cy="22.00" r="0.5" fill="black" />
<circle cx="23.00" cy="22.00" r="0.5" fill="black" />
<circle cx="26.00" cy="22.00" r="0.5" fill="black" />
<circle cx="28.00" cy="22.00" r="0.5" fill="black" />
<circle cx="30.00" cy="22.00" r="0.5" fill="black" />
<circle cx="33.00" cy="22.00" r="0.5" fill="black" />
<circle cx="35.00" cy="22.00" r="0.5" fill="black" />
<circle cx="38.00" cy="22.00" r="0.5" fill="black" />
<circle cx="40.00" cy="22.00" r="0.5" fill="black" />
<circle cx="42.00" cy="22.00" r="0.5" fill="black" />
<circle cx="45.00" cy="22.00" r="0.5" fill="black" />
<circle cx="47.00" cy="22.00" r="0.5" fill="black" />
<circle cx="49.00" cy="22.00" r="0.5" fill="black" />
<circle cx="52.00" cy="22.00" r="0.5" fill="black" />
<circle cx="54.00" cy="22.00" r="0.5" fill="black" />
<circle cx="21.00" cy="20.00" r="0.5" fill="black" />
<circle cx="23.00" cy="20.00" r="0.5" fill="black" />
<circle cx="26.00" cy="20.00" r="0.5" fill="black" />
<circle cx="28.00" cy="20.00" r="0.5" fill="black" />
<circle cx="30.00" cy="20.00" r="0.5" fill="black" />
<circle cx="31.00" cy="20.00" r="0.5" fill="black" />
<circle cx="33.00" cy="20.00" r="0.5" fill="black" />
<circle cx="35.00" cy="20.00" r="0.5" fill="black" />
<circle cx="37.00" cy="20.00" r="0.5" fill="black" />
<circle cx="38.00" cy="20.00" r="0.5" fill="black" />
<circle cx="40.00" cy="20.00" r="0.5" fill="black" />
<circle cx="42.00" cy="20.00" r="0.5" fill="black" />
<circle cx="45.00" cy="20.00" r="0.5" fill="black" />
<circle cx="47.00" cy="20.00" r="0.5" fill="black" />
<circle cx="49.00" cy="20.00" r="0.5" fill="black" />
<circle cx="50.00" cy="20.00" r="0.5" fill="black" />
<circle cx="52.00" cy="20.00" r="0.5" fill="black" />
<circle cx="28.00" cy="18.00" r="0.5" fill="black" />
<circle cx="47.00" cy="18.00" r="0.5" fill="black" />
<circle cx="21.00" cy="17.00" r="0.5" fill="black" />
<circle cx="23.00" cy="17.00" r="0.5" fill="black" />
<circle cx="26.00" cy="17.00" r="0.5" fill="black" />
<circle cx="28.00" cy="17.00" r="0.5" fill="black" />
<circle cx="30.00" cy="17.00" r="0.5" fill="black" />
<circle cx="33.00" cy="17.00" r="0.5" fill="black" />
<circle cx="35.00" cy="17.00" r="0.5" fill="black" />
<circle cx="38.00" cy="17.00" r="0.5" fill="black" />
<circle cx="40.00" cy="17.00" r="0.5" fill="black" />
<circle cx="42.00" cy="17.00" r="0.5" fill="black" />
<circle cx="45.00" cy="17.00" r="0.5" fill="black" />
<circle cx="47.00" cy="17.00" r="0.5" fill="black" />
<circle cx="49.00" cy="17.00" r="0.5" fill="black" />
<circle cx="52.00" cy="17.00" r="0.5" fill="black" />
<circle cx="21.00" cy="15.00" r="0.5" fill="black" />
<circle cx="23.00" cy="15.00" r="0.5" fill="black" />
<circle cx="26.00" cy="15.00" r="0.5" fill="black" />
<circle cx="28.00" cy="15.00" r="0.5" fill="black" />
<circle cx="42.00" cy="15.00" r="0.5" fill="black" />
<circle cx="21.00" cy="13.00" r="0.5" fill="black" />
<circle cx="23.00" cy="13.00" r="0.5" fill="black" />
<circle cx="26.00" cy="13.00" r="0.5" fill="black" />
<circle cx="42.00" cy="13.00" r="0.5" fill="black" />
<circle cx="21.00" cy="12.00" r="0.5" fill="black" />
<circle cx="23.00" cy="12.00" r="0.5" fill="black" />
<circle cx="26.00" cy="12.00" r="0.5" fill="black" />
<circle cx="42.00" cy="12.00" r="0.5" fill="black" />
</svg>